<svg width="26" height="26" viewBox="0 0 26 26" fill="none" xmlns="http://www.w3.org/2000/svg">
<path d="M17.2859 0H11.8086V6.48245C10.9903 6.31693 10.3149 6.26173 9.42548 6.26173C3.69937 6.26173 0 9.07746 0 13.4115C0 17.9114 3.48592 20.2578 10.1728 20.2578C12.4125 20.2578 14.4757 20.0922 17.286 19.6781V0H17.2859ZM11.8086 16.7246C11.0261 16.8072 10.5282 16.8346 9.92363 16.8346C7.11364 16.8346 5.58412 15.5927 5.58412 13.3287C5.58412 11.01 7.1845 9.68487 9.95942 9.68487C10.6348 9.68487 11.168 9.74003 11.8086 9.90559V16.7246ZM26 0.0228454V4.38464H20.5225V0.0228454H26ZM20.5225 6.56523H26V16.4208C26 19.8163 25.6795 21.4449 24.7193 22.8529C23.8303 24.2058 22.6565 25.0613 20.2376 26L15.1513 24.1227C17.5696 23.2395 18.7444 22.467 19.4908 21.2793C20.2732 20.0646 20.5225 18.6568 20.5225 14.9573V6.56523Z" fill="#018AFE"/>
</svg>
