<svg width="26" height="19" viewBox="0 0 26 19" fill="none" xmlns="http://www.w3.org/2000/svg">
<path d="M25.1591 8.59644C25.088 8.59114 25.0056 8.5876 24.9224 8.5876C24.5028 8.5876 24.1014 8.66715 23.7321 8.8121L23.7547 8.80414C23.6463 8.84833 23.4729 8.84833 23.4582 8.98886C23.518 9.0472 23.5267 9.14354 23.5769 9.22485C23.6784 9.39985 23.8032 9.54834 23.9489 9.67207L23.9515 9.67472C24.1032 9.79581 24.2549 9.91336 24.4144 10.0168C24.6961 10.1935 25.016 10.2987 25.2917 10.4764C25.4486 10.5798 25.609 10.7115 25.7685 10.8219C25.8474 10.8767 25.8986 10.9766 26 11.012V10.9899C25.9506 10.9236 25.935 10.8273 25.8864 10.7539C25.8136 10.6797 25.7417 10.6134 25.6697 10.5409C25.4547 10.2536 25.2059 10.0079 24.9267 9.80288L24.9163 9.79581C24.6849 9.63495 24.1777 9.40957 24.0824 9.13823L24.0685 9.12232C24.2575 9.09493 24.4257 9.05427 24.5878 8.99947L24.567 9.00566C24.8132 8.93937 25.0386 8.95351 25.2926 8.88899C25.407 8.85894 25.5232 8.8227 25.6394 8.78558V8.71929C25.5093 8.58672 25.4122 8.40641 25.2779 8.28268C24.9233 7.96449 24.5323 7.66576 24.1205 7.39707L24.0815 7.3732C23.8544 7.2256 23.5657 7.13015 23.3264 7.00464C23.2397 6.96045 23.0949 6.93835 23.0446 6.86411C22.9319 6.7006 22.8323 6.51323 22.7534 6.31525L22.7464 6.2958C22.5337 5.87509 22.3361 5.44702 22.1534 5.01158C22.0286 4.67307 21.9046 4.39554 21.7651 4.12686L21.785 4.1684C21.1036 3.00261 20.1543 2.06574 19.0212 1.42672L18.984 1.40728C18.7161 1.27205 18.4049 1.16687 18.078 1.10766L18.0564 1.10412C17.8752 1.09528 17.6948 1.08203 17.5145 1.07407C17.388 0.99099 17.2787 0.906142 17.1764 0.812455L17.179 0.815106C16.7672 0.549954 15.7018 -0.0245424 15.3984 0.735561C15.2033 1.2146 15.6879 1.68746 15.8552 1.93051C15.9887 2.09226 16.1101 2.27344 16.215 2.46524L16.2237 2.48291C16.2748 2.61107 16.2887 2.74276 16.3398 2.87622C16.4655 3.27572 16.593 3.60362 16.7378 3.92092L16.7152 3.86612C16.801 4.04201 16.8903 4.19138 16.99 4.33279L16.9831 4.32219C17.0412 4.40262 17.1409 4.44062 17.1643 4.5732C17.0897 4.73317 17.0316 4.91878 16.9996 5.11234L16.9978 5.12471C16.9042 5.41815 16.8496 5.75666 16.8496 6.10754C16.8496 6.65641 16.9822 7.17346 17.2163 7.62775L17.2076 7.61007C17.3238 7.79303 17.5995 8.19959 17.9688 8.04404C18.2939 7.91146 18.2219 7.49164 18.3156 7.12219C18.3372 7.03381 18.3234 6.97548 18.3676 6.91537V6.93217C18.469 7.13987 18.5713 7.33785 18.6641 7.54555C18.9259 7.93002 19.2371 8.25704 19.5925 8.52662L19.6038 8.53457C19.7772 8.66715 19.915 8.89695 20.1318 8.97826V8.95616H20.1153C20.0659 8.90136 20.0113 8.85275 19.9515 8.81121L19.948 8.80945C19.8136 8.6751 19.6888 8.53015 19.5761 8.37725L19.5691 8.36752C19.2865 7.97863 19.0178 7.53848 18.7846 7.07623L18.7594 7.02232C18.6407 6.79075 18.541 6.54063 18.4456 6.31171C18.4023 6.22333 18.4023 6.09075 18.3294 6.04656C18.2011 6.19328 18.0858 6.35679 17.9896 6.53267L17.9827 6.54681C17.8717 6.87649 17.7989 7.25742 17.7798 7.6525V7.66222C17.7503 7.67017 17.7651 7.66222 17.7503 7.67813C17.5189 7.62068 17.4391 7.37586 17.3524 7.16992C17.2345 6.84643 17.166 6.47169 17.166 6.08191C17.166 5.76727 17.2102 5.46322 17.2935 5.17598L17.2883 5.19896C17.3394 5.04428 17.5561 4.5564 17.4694 4.40792C17.4244 4.26739 17.2813 4.18696 17.2016 4.07294C17.1071 3.93683 17.0204 3.78216 16.9484 3.61865L16.9415 3.60097C16.7681 3.18822 16.6814 2.73039 16.4933 2.31764C16.3797 2.10198 16.2601 1.91637 16.1257 1.74314L16.1318 1.75109C15.9887 1.58228 15.857 1.39402 15.7425 1.19427L15.733 1.1766C15.6974 1.09617 15.6463 0.962708 15.7035 0.874324C15.7139 0.823061 15.7538 0.783288 15.8049 0.775333C15.9003 0.695788 16.1691 0.799197 16.2627 0.843389C16.5375 0.94945 16.7742 1.07407 16.9935 1.22079L16.9796 1.21195C17.0811 1.28443 17.1912 1.42496 17.3212 1.46119H17.4729C17.7044 1.51334 17.9662 1.4771 18.1829 1.54162C18.5808 1.67862 18.925 1.85008 19.2432 2.06044L19.225 2.04895C20.1821 2.67913 20.9484 3.53115 21.4668 4.53784L21.4842 4.57408C21.5709 4.74378 21.609 4.90022 21.6879 5.07699C21.8396 5.44113 22.0269 5.80969 22.1812 6.16146C22.3277 6.53974 22.5011 6.86676 22.7074 7.16815L22.697 7.15224C22.8054 7.30692 23.2406 7.38735 23.4356 7.46778C23.6411 7.54113 23.8058 7.61096 23.9653 7.68962L23.9332 7.67548C24.1821 7.83015 24.4248 8.00692 24.6589 8.17661C24.7776 8.26058 25.1391 8.4453 25.1608 8.59379L25.1591 8.59644ZM14.9952 15.06C14.9952 15.0732 14.9961 15.0882 14.9961 15.1033C14.9961 15.5965 14.7802 16.0375 14.4387 16.3345L14.4361 16.3362C14.0616 16.6473 13.5787 16.8365 13.0524 16.8365C13.0117 16.8365 12.971 16.8356 12.9311 16.833H12.9363C12.2956 16.8241 11.7061 16.612 11.2232 16.2576L11.2319 16.2638L11.4885 15.7379C11.8604 15.95 12.3026 16.0817 12.7724 16.1002H12.7776C12.801 16.102 12.8279 16.1029 12.8557 16.1029C13.1435 16.1029 13.4114 16.011 13.6307 15.8545L13.6264 15.8572C13.8249 15.7034 13.9515 15.463 13.9515 15.1925C13.9515 15.1872 13.9515 15.1828 13.9515 15.1775V15.1784C13.9515 14.8143 13.7026 14.5049 13.2492 14.2451C12.8288 14.01 11.9896 13.5194 11.9896 13.5194C11.5752 13.2578 11.3039 12.7973 11.3039 12.2723C11.3039 12.2538 11.3039 12.2352 11.3047 12.2167V12.2193C11.3039 12.2025 11.3039 12.1831 11.3039 12.1636C11.3039 11.7084 11.5007 11.3001 11.8119 11.0226L11.8136 11.0208C12.1448 10.7344 12.5774 10.5603 13.0498 10.5603C13.0802 10.5603 13.1097 10.5612 13.1391 10.5621H13.1348C13.1426 10.5621 13.1521 10.5621 13.1617 10.5621C13.7156 10.5621 14.2315 10.7309 14.6615 11.0217L14.6511 11.0155L14.4205 11.5414C14.0815 11.3858 13.6862 11.2922 13.27 11.2877H13.2683C13.2475 11.286 13.2241 11.2851 13.1998 11.2851C12.9571 11.2851 12.7334 11.3717 12.5583 11.5166L12.56 11.5149C12.3962 11.6536 12.2922 11.8613 12.2913 12.0938C12.2913 12.4562 12.5444 12.7673 13.0126 13.0324C13.4382 13.2702 14.2982 13.7722 14.2982 13.7722C14.7213 14.0259 15.0013 14.4872 15.0013 15.0158C15.0013 15.0317 15.0013 15.0485 15.0004 15.0644V15.0617L14.9952 15.06ZM16.7915 15.5293C16.5548 15.0476 16.417 14.4802 16.417 13.88C16.417 13.7855 16.4205 13.6918 16.4274 13.5999L16.4265 13.6122C16.4265 12.0738 16.8851 11.3042 17.8023 11.3036C17.8249 11.3019 17.8518 11.301 17.8795 11.301C18.2913 11.301 18.6528 11.5202 18.8583 11.8507L18.8609 11.8552C19.0958 12.3342 19.2336 12.8999 19.2336 13.4973C19.2336 13.5893 19.2302 13.6803 19.2241 13.7704L19.225 13.7581C19.225 15.3089 18.7664 16.0849 17.8492 16.0861C17.8257 16.0879 17.7989 16.0888 17.772 16.0888C17.3602 16.0888 16.9978 15.8696 16.7924 15.539L16.7898 15.5346L16.7915 15.5293ZM20.358 16.901L19.257 16.3486C19.3576 16.2629 19.4478 16.1727 19.531 16.0755L19.5336 16.0728C19.9783 15.4612 20.2453 14.6914 20.2453 13.8588C20.2453 13.7625 20.2419 13.667 20.2349 13.5725L20.2358 13.5848C20.2358 11.5638 19.4576 10.5527 17.9012 10.5515C17.8665 10.5497 17.8257 10.5488 17.785 10.5488C17.1201 10.5488 16.5228 10.8467 16.1162 11.3196L16.1144 11.3222C15.6714 11.9338 15.4053 12.7028 15.4053 13.5353C15.4053 13.629 15.4088 13.7218 15.4157 13.8138L15.4148 13.8014C15.407 13.8906 15.4027 13.9949 15.4027 14.1001C15.4027 14.8726 15.6402 15.5885 16.0442 16.1763L16.0364 16.1648C16.4257 16.5872 16.9779 16.8506 17.5891 16.8506C17.6463 16.8506 17.7026 16.848 17.7581 16.8436L17.7503 16.8444C17.7581 16.8444 17.7685 16.8444 17.7781 16.8444C18.0477 16.8444 18.3086 16.8047 18.5557 16.7313L18.5366 16.7366L19.9723 17.5895L20.3624 16.9028L20.358 16.901ZM23.9541 16.7516H21.1045V10.6443H22.0633V16.0013H23.9541V16.7516ZM10.6025 12.2458C10.3537 14.0877 9.78413 15.7502 8.95102 17.2395L8.9857 17.1715C8.65193 17.8264 8.02081 18.2824 7.27958 18.3558L7.27091 18.3567C7.04638 18.3443 6.83745 18.2895 6.64759 18.2003L6.658 18.2047V17.6593C6.77677 17.6779 6.91374 17.6885 7.05332 17.6885C7.06112 17.6885 7.06892 17.6885 7.07759 17.6885C7.09146 17.6894 7.1062 17.6894 7.1218 17.6894C7.37235 17.6894 7.60208 17.5966 7.77893 17.4419L7.7772 17.4428C7.96792 17.2828 8.09016 17.0442 8.0971 16.7755C8.05115 16.3884 7.96359 16.0348 7.83788 15.7016L7.84829 15.7317L6.74989 12.2458H7.73559L8.52362 14.8523C8.66407 15.2199 8.74556 15.646 8.74556 16.0905C8.74556 16.0914 8.74556 16.0923 8.74556 16.0923C9.16342 14.9769 9.48071 13.6759 9.64196 12.3262L9.64976 12.2449L10.6025 12.2458ZM6.25054 16.7516H5.24664C5.21832 15.1248 5.12094 13.5012 4.95449 11.8808H4.94582L3.41829 16.7516H2.65453L1.13741 11.8808H1.127C1.00852 13.5018 0.938015 15.1254 0.915475 16.7516H0C0.059529 14.5803 0.207484 12.5443 0.443866 10.6434H1.68964L3.13567 15.1324H3.14434L4.60338 10.6434H5.78934C6.05173 12.8689 6.20633 14.905 6.25314 16.7516H6.25054ZM17.772 2.17976C17.7703 2.17976 17.7677 2.17976 17.7651 2.17976C17.6619 2.17976 17.5622 2.19301 17.4668 2.21776L17.4755 2.21599V2.23014H17.4902C17.5648 2.34327 17.6411 2.44137 17.7235 2.53329L17.7217 2.53153C17.7798 2.64996 17.8301 2.76751 17.8882 2.88506L17.9029 2.86827C17.9974 2.79226 18.0572 2.67559 18.0572 2.54478C18.0572 2.52887 18.0564 2.51385 18.0546 2.49794V2.49971C18.0113 2.44756 18.0052 2.3963 17.9679 2.34503C17.9246 2.27079 17.8318 2.23455 17.7729 2.17622L17.772 2.17976Z" fill="#018AFE"/>
</svg>
