<svg width="27" height="28" viewBox="0 0 27 28" fill="none" xmlns="http://www.w3.org/2000/svg">
<path d="M10.0202 1H8.72017C7.68582 1 6.69384 1.43252 5.96245 2.2024C5.23106 2.97229 4.82017 4.01648 4.82017 5.10526V9.21053C4.82017 10.2993 4.40927 11.3435 3.67788 12.1134C2.94649 12.8833 1.95451 13.3158 0.920166 13.3158C1.95451 13.3158 2.94649 13.7483 3.67788 14.5182C4.40927 15.2881 4.82017 16.3323 4.82017 17.4211V22.8947C4.82017 23.9835 5.23106 25.0277 5.96245 25.7976C6.69384 26.5675 7.68582 27 8.72017 27H10.0202" stroke="#018AFE" stroke-width="1.4879" stroke-linecap="round"/>
<path d="M17.8201 1H19.1201C20.1544 1 21.1464 1.43252 21.8778 2.2024C22.6092 2.97229 23.0201 4.01648 23.0201 5.10526V9.21053C23.0201 10.2993 23.431 11.3435 24.1624 12.1134C24.8937 12.8833 25.8857 13.3158 26.9201 13.3158C25.8857 13.3158 24.8937 13.7483 24.1624 14.5182C23.431 15.2881 23.0201 16.3323 23.0201 17.4211V22.8947C23.0201 23.9835 22.6092 25.0277 21.8778 25.7976C21.1464 26.5675 20.1544 27 19.1201 27H17.8201" stroke="#018AFE" stroke-width="1.4879" stroke-linecap="round"/>
</svg>
