<svg width="28" height="28" viewBox="0 0 28 28" fill="none" xmlns="http://www.w3.org/2000/svg">
<path d="M11.2143 4.71429H13.0714M8.42857 7.5V2.85714C8.42857 1.83147 9.26005 1 10.2857 1H17.7143C18.74 1 19.5714 1.83147 19.5714 2.85714V12.1429C19.5714 13.1685 18.74 14 17.7143 14H10.2857C9.26005 14 8.42857 14.8315 8.42857 15.8571V25.1429C8.42857 26.1686 9.26005 27 10.2857 27H17.7143C18.74 27 19.5714 26.1686 19.5714 25.1429V20.5M14.9286 8.42857H2.85714C1.83147 8.42857 1 9.26005 1 10.2857V19.5714C1 20.5971 1.83147 21.4286 2.85714 21.4286H8.42857M13.0714 19.5714H25.1429C26.1686 19.5714 27 18.74 27 17.7143V8.42857C27 7.40291 26.1686 6.57143 25.1429 6.57143H19.5714M14.9286 23.2857H16.7857" stroke="#018AFE" stroke-width="1.17541"/>
</svg>
