<svg width="28" height="25" viewBox="0 0 28 25" fill="none" xmlns="http://www.w3.org/2000/svg">
<path d="M2 8.6C2 5.01733 2 3.22599 3.17157 2.11299C4.34315 1 6.22876 1 10 1H18C21.7712 1 23.6569 1 24.8284 2.11299C26 3.22599 26 5.01733 26 8.6V14.9333C26 17.3218 26 18.516 25.219 19.258C24.4379 20 23.1808 20 20.6667 20H7.33333C4.81918 20 3.5621 20 2.78105 19.258C2 18.516 2 17.3218 2 14.9333V8.6Z" stroke="#088BF1" stroke-width="1.5"/>
<path d="M27 24H1" stroke="#088BF1" stroke-width="1.5" stroke-linecap="round"/>
<path d="M14.6444 14.6945C14.4882 14.5383 14.2349 14.5383 14.0787 14.6945C13.9225 14.8507 13.9225 15.1039 14.0787 15.2602L14.6444 14.6945ZM17.2542 14.9773L17.537 15.2602L17.2542 14.9773ZM10.0227 7.74583L10.3055 8.02868H10.3055L10.0227 7.74583ZM9.73984 10.9213C9.89605 11.0775 10.1493 11.0775 10.3055 10.9213C10.4617 10.7651 10.4617 10.5118 10.3055 10.3556L9.73984 10.9213ZM13.6384 7.02269L13.9213 7.30553C13.9963 7.23051 14.0384 7.12877 14.0384 7.02269C14.0384 6.9166 13.9963 6.81486 13.9213 6.73984L13.6384 7.02269ZM10.7458 7.02269L10.463 6.73984L10.463 6.73984L10.7458 7.02269ZM17.9773 11.3616L18.2602 11.0787C18.1851 11.0037 18.0834 10.9616 17.9773 10.9616C17.8712 10.9616 17.7695 11.0037 17.6945 11.0787L17.9773 11.3616ZM17.9773 14.2542L17.6945 13.9713L17.9773 14.2542ZM12.1503 7.94509C11.9941 8.1013 11.9941 8.35456 12.1503 8.51077C12.3065 8.66698 12.5598 8.66698 12.716 8.51077L12.1503 7.94509ZM16.4892 12.284C16.333 12.4402 16.333 12.6935 16.4892 12.8497C16.6454 13.0059 16.8987 13.0059 17.0549 12.8497L16.4892 12.284ZM10.463 6.73984L9.73984 7.46299L10.3055 8.02868L11.0287 7.30553L10.463 6.73984ZM17.537 15.2602L18.2602 14.537L17.6945 13.9713L16.9713 14.6945L17.537 15.2602ZM14.0787 15.2602C14.4116 15.5931 14.6892 15.8718 14.9389 16.0623C15.1979 16.2599 15.4734 16.4 15.8079 16.4V15.6C15.7187 15.6 15.612 15.5696 15.4242 15.4263C15.2271 15.276 14.9933 15.0434 14.6444 14.6945L14.0787 15.2602ZM16.9713 14.6945C16.6224 15.0434 16.3886 15.276 16.1916 15.4263C16.0038 15.5696 15.8971 15.6 15.8079 15.6V16.4C16.1423 16.4 16.4179 16.2599 16.6768 16.0623C16.9266 15.8718 17.2041 15.5931 17.537 15.2602L16.9713 14.6945ZM9.73984 7.46299C9.40694 7.79589 9.12822 8.07342 8.93766 8.32317C8.74007 8.58215 8.6 8.8577 8.6 9.19213H9.4C9.4 9.10295 9.43038 8.99625 9.57368 8.80843C9.72402 8.61138 9.95664 8.37757 10.3055 8.02868L9.73984 7.46299ZM10.3055 10.3556C9.95664 10.0067 9.72402 9.77288 9.57368 9.57583C9.43038 9.38801 9.4 9.28131 9.4 9.19213H8.6C8.6 9.52656 8.74007 9.80211 8.93766 10.0611C9.12822 10.3108 9.40694 10.5884 9.73984 10.9213L10.3055 10.3556ZM13.9213 6.73984C13.5884 6.40694 13.3108 6.12822 13.0611 5.93766C12.8021 5.74007 12.5266 5.6 12.1921 5.6V6.4C12.2813 6.4 12.388 6.43038 12.5758 6.57368C12.7729 6.72402 13.0067 6.95664 13.3556 7.30553L13.9213 6.73984ZM11.0287 7.30553C11.3776 6.95664 11.6114 6.72402 11.8084 6.57368C11.9963 6.43038 12.1029 6.4 12.1921 6.4V5.6C11.8577 5.6 11.5821 5.74007 11.3232 5.93766C11.0734 6.12821 10.7959 6.40694 10.463 6.73984L11.0287 7.30553ZM17.6945 11.6444C18.0434 11.9933 18.276 12.2271 18.4263 12.4242C18.5696 12.612 18.6 12.7187 18.6 12.8079H19.4C19.4 12.4734 19.2599 12.1979 19.0623 11.9389C18.8718 11.6892 18.5931 11.4116 18.2602 11.0787L17.6945 11.6444ZM18.2602 14.537C18.5931 14.2041 18.8718 13.9266 19.0623 13.6768C19.2599 13.4179 19.4 13.1423 19.4 12.8079H18.6C18.6 12.8971 18.5696 13.0037 18.4263 13.1916C18.276 13.3886 18.0434 13.6224 17.6945 13.9713L18.2602 14.537ZM13.3556 6.73984L12.1503 7.94509L12.716 8.51077L13.9213 7.30553L13.3556 6.73984ZM17.6945 11.0787L16.4892 12.284L17.0549 12.8497L18.2602 11.6444L17.6945 11.0787Z" fill="#088BF1"/>
<path d="M15.18 7.03933L15.6435 6.57589C16.4113 5.80804 17.6563 5.80804 18.4241 6.57589C19.192 7.34374 19.192 8.58868 18.4241 9.35653L17.9607 9.81997M15.18 7.03933C15.18 7.03933 15.238 8.02414 16.1069 8.89309C16.9759 9.76204 17.9607 9.81997 17.9607 9.81997M15.18 7.03933L10.9194 11.2999C10.6308 11.5885 10.4865 11.7328 10.3624 11.8919C10.2161 12.0796 10.0906 12.2827 9.98817 12.4975C9.90137 12.6797 9.83684 12.8732 9.70778 13.2604L9.29458 14.5L9.1609 14.901M17.9607 9.81997L13.7001 14.0806C13.4115 14.3692 13.2672 14.5135 13.1081 14.6376C12.9204 14.7839 12.7173 14.9094 12.5025 15.0118C12.3203 15.0986 12.1268 15.1632 11.7396 15.2922L10.5 15.7054L10.099 15.8391M10.099 15.8391L9.69792 15.9728C9.50739 16.0363 9.29733 15.9867 9.15532 15.8447C9.0133 15.7027 8.96371 15.4926 9.02722 15.3021L9.1609 14.901M10.099 15.8391L9.1609 14.901" stroke="#088BF1" stroke-width="0.8"/>
</svg>
