<svg width="150" height="150" viewBox="0 0 150 150" fill="none" xmlns="http://www.w3.org/2000/svg">
<circle cx="75" cy="75" r="75" fill="#D9D9D9"/>
<path d="M84.2705 69.3596C76.2787 73.4593 67.3319 65.8174 70.1192 57.2781C72.919 48.7363 84.6505 47.8614 88.6752 55.8982C91.1875 60.8303 89.2226 66.8698 84.273 69.3696L84.2705 69.3596ZM73.5439 36.8998C81.7707 33.9076 91.185 34.0626 98.2294 40.182C99.7117 41.4044 100.887 42.9693 101.639 44.7517C102.342 47.0415 99.1393 44.5142 98.7093 44.1917C96.482 42.6693 94.0772 41.4444 91.5374 40.532C77.6586 36.2899 64.5322 44.0217 56.4229 56.0507C53.1156 61.3503 50.5908 67.1073 48.9235 73.1318C48.766 73.8742 48.5335 74.5917 48.221 75.2816C47.8586 75.9591 48.0511 73.4443 48.0511 73.3693C48.351 70.857 48.8335 68.3572 49.4834 65.9074C53.2456 52.7985 61.5799 41.8869 73.5439 36.8873V36.8998ZM73.6614 106.881V77.6664C74.4938 77.7564 75.2738 77.7964 76.1087 77.7964C79.8984 77.8089 83.6081 76.7665 86.8503 74.8141V106.869C86.8503 109.619 86.3404 111.636 85.103 112.966C83.8656 114.318 82.1107 115.063 80.2734 114.996C78.4635 115.063 76.7212 114.318 75.5063 112.966C74.2839 111.624 73.6464 109.594 73.6464 106.884L73.6614 106.881Z" fill="black"/>
</svg>
