<svg width="150" height="150" viewBox="0 0 150 150" fill="none" xmlns="http://www.w3.org/2000/svg">
<circle cx="75" cy="75" r="75" fill="#D9D9D9"/>
<path fill-rule="evenodd" clip-rule="evenodd" d="M74.9998 96.8182C87.0496 96.8182 96.818 87.0498 96.818 75C96.818 62.9502 87.0496 53.1818 74.9998 53.1818C62.95 53.1818 53.1816 62.9502 53.1816 75C53.1816 87.0498 62.95 96.8182 74.9998 96.8182ZM74.9998 89.5455C83.0329 89.5455 89.5453 83.0331 89.5453 75C89.5453 66.9668 83.0329 60.4546 74.9998 60.4546C66.9666 60.4546 60.4544 66.9668 60.4544 75C60.4544 83.0331 66.9666 89.5455 74.9998 89.5455Z" fill="#0F0F0F"/>
<path d="M96.818 49.5455C94.8096 49.5455 93.1816 51.1735 93.1816 53.1818C93.1816 55.1901 94.8096 56.8182 96.818 56.8182C98.8264 56.8182 100.454 55.1901 100.454 53.1818C100.454 51.1735 98.8264 49.5455 96.818 49.5455Z" fill="#0F0F0F"/>
<path fill-rule="evenodd" clip-rule="evenodd" d="M37.378 46.9129C35 51.5801 35 57.6898 35 69.9091V80.0909C35 92.3102 35 98.42 37.378 103.087C39.4698 107.192 42.8076 110.53 46.9129 112.622C51.5801 115 57.6898 115 69.9091 115H80.0909C92.3102 115 98.42 115 103.087 112.622C107.192 110.53 110.53 107.192 112.622 103.087C115 98.42 115 92.3102 115 80.0909V69.9091C115 57.6898 115 51.5801 112.622 46.9129C110.53 42.8076 107.192 39.4698 103.087 37.378C98.42 35 92.3102 35 80.0909 35H69.9091C57.6898 35 51.5801 35 46.9129 37.378C42.8076 39.4698 39.4698 42.8076 37.378 46.9129ZM80.0909 42.2727H69.9091C63.6794 42.2727 59.4445 42.2784 56.1712 42.5458C52.9827 42.8063 51.3521 43.2785 50.2147 43.8581C47.4778 45.2526 45.2526 47.4778 43.8581 50.2147C43.2785 51.3521 42.8063 52.9827 42.5458 56.1712C42.2784 59.4445 42.2727 63.6794 42.2727 69.9091V80.0909C42.2727 86.3207 42.2784 90.5553 42.5458 93.8287C42.8063 97.0175 43.2785 98.648 43.8581 99.7855C45.2526 102.522 47.4778 104.747 50.2147 106.142C51.3521 106.721 52.9827 107.194 56.1712 107.454C59.4445 107.721 63.6794 107.727 69.9091 107.727H80.0909C86.3207 107.727 90.5553 107.721 93.8287 107.454C97.0175 107.194 98.648 106.721 99.7855 106.142C102.522 104.747 104.747 102.522 106.142 99.7855C106.721 98.648 107.194 97.0175 107.454 93.8287C107.721 90.5553 107.727 86.3207 107.727 80.0909V69.9091C107.727 63.6794 107.721 59.4445 107.454 56.1712C107.194 52.9827 106.721 51.3521 106.142 50.2147C104.747 47.4778 102.522 45.2526 99.7855 43.8581C98.648 43.2785 97.0175 42.8063 93.8287 42.5458C90.5553 42.2784 86.3207 42.2727 80.0909 42.2727Z" fill="#0F0F0F"/>
</svg>
