<svg width="150" height="150" viewBox="0 0 150 150" fill="none" xmlns="http://www.w3.org/2000/svg">
<circle cx="75" cy="75" r="75" fill="#D9D9D9"/>
<path fill-rule="evenodd" clip-rule="evenodd" d="M115 115H99V87.0039C99 79.3239 95.612 75.0391 89.536 75.0391C82.924 75.0391 79 79.5039 79 87.0039V115H63V63H79V68.8477C79 68.8477 84.02 60.0391 95.332 60.0391C106.648 60.0391 115 66.9444 115 81.2324V115ZM44.768 54.6836C39.372 54.6836 35 50.2758 35 44.8398C35 39.4078 39.372 35 44.768 35C50.16 35 54.532 39.4078 54.532 44.8398C54.536 50.2758 50.16 54.6836 44.768 54.6836ZM35 115H55V63H35V115Z" fill="black"/>
</svg>
