<svg width="150" height="150" viewBox="0 0 150 150" fill="none" xmlns="http://www.w3.org/2000/svg">
<circle cx="75" cy="75" r="75" fill="#D9D9D9"/>
<path d="M90.8051 94.0919L90.7165 99.3189L90.3622 114.38V115C64.4043 92.9402 59.9746 87.536 59.2658 85.9413V85.8527C59.1772 85.5869 59.1772 85.2326 59.1772 84.8782C59.1772 84.7896 59.1772 84.6124 59.2658 84.5238C59.2658 84.4352 59.3544 84.3466 59.3544 84.258C59.6202 83.5493 60.0632 82.8405 60.5061 82.309C60.8605 81.866 61.2149 81.423 61.6579 81.0687C62.5438 80.1827 63.5183 79.3854 64.4929 78.6767C65.0244 78.3223 65.556 77.9679 66.0875 77.5249C67.1507 76.8162 68.3024 76.1074 69.5427 75.3987C78.845 83.9037 90.7165 93.9147 90.8051 94.0919Z" fill="black"/>
<path d="M91.1595 44.4795L91.0709 49.7065L90.9823 52.2757L90.8937 57.5028L90.8051 60.1606L90.7165 65.3876C90.5394 65.4762 78.6678 69.9944 69.6313 75.3101C68.391 76.0188 67.2393 76.7276 66.1761 77.4363C65.6446 77.7907 65.113 78.1451 64.5815 78.588C63.6069 79.2968 62.6324 80.0941 61.7465 80.98C61.3035 81.423 60.9491 81.7774 60.5947 82.2204C59.7974 83.2835 59.2658 84.258 59.1772 85.2325L59.2658 80.8915V80.1827V79.9169L59.3544 77.1705L59.5316 71.6777L59.6202 69.0199L59.7974 63.6157C61.6579 56.0853 88.0587 45.7198 91.1595 44.4795Z" fill="black"/>
<path d="M66.7962 50.2381C71.1373 50.2381 74.5925 46.7829 74.5925 42.619C74.5925 38.3666 71.1373 35 66.7962 35C62.4551 35 59 38.4552 59 42.619C59 46.8715 62.4551 50.2381 66.7962 50.2381Z" fill="black"/>
</svg>
